<svg xmlns="http://www.w3.org/2000/svg" width="110" height="110" version="1.0" viewBox="0 0 110 110"><circle cx="55" cy="55" r="55" fill="#25B7D3"/><path fill="#6FDAF1" d="M39 67a4 4 0 0 0 4 4h24l12 12V71h4a4 4 0 0 0 4-4V35a4 4 0 0 0-4-4H43a4 4 0 0 0-4 4v32z"/><path fill="#F0F1F1" d="M71 59a4 4 0 0 1-4 4H43L31 75V63h-4a4 4 0 0 1-4-4V27a4 4 0 0 1 4-4h40a4 4 0 0 1 4 4v32z"/><path fill="#FFF" d="M70.335 24.798A3.99 3.99 0 0 0 67 23H27a4 4 0 0 0-4 4v32a4 4 0 0 0 4 4h4v1.134l39.335-39.336z"/><circle cx="35" cy="43" r="4" fill="#21B2D1"/><circle cx="47" cy="43" r="4" fill="#21B2D1"/><circle cx="59" cy="43" r="4" fill="#21B2D1"/></svg>